<?xml version="1.0" standalone="no"?>
<svg viewBox="0 0 200 200" xmlns="http://www.w3.org/2000/svg">
  <path fill="#8A3FFC" d="M31.6,-53.9C43.9,-47.6,59,-45.2,62.9,-36.8C66.9,-28.5,59.9,-14.2,58.6,-0.7C57.3,12.8,61.9,25.6,54,27.2C46.2,28.8,25.9,19.3,14.9,26.1C3.8,32.9,1.9,55.9,-5.3,65.2C-12.6,74.5,-25.2,69.9,-30.4,59.8C-35.6,49.6,-33.4,33.8,-39.7,22.9C-46.1,12,-60.9,6,-67.3,-3.7C-73.6,-13.4,-71.6,-26.7,-62.9,-33.6C-54.3,-40.5,-39,-40.9,-27.5,-47.6C-15.9,-54.3,-7.9,-67.4,0.8,-68.9C9.6,-70.3,19.3,-60.2,31.6,-53.9Z" transform="translate(100 100)" />
</svg>
