<svg version="1.1" id="Layer_1" xmlns="http://www.w3.org/2000/svg" xmlns:xlink="http://www.w3.org/1999/xlink" x="0px" y="0px" viewBox="0 0 500 500" style="width: 188px;" xml:space="preserve" data-imageid="ethereum-86" imageName="Ethereum" class="illustrations_image">
<style type="text/css">
	.st0_ethereum-86{fill:#D1D3D4;}
	.st1_ethereum-86{fill:#FFFFFF;}
	.st2_ethereum-86{fill:#231F20;}
	.st3_ethereum-86{fill:#68E1FD;}
</style>
<g id="line_connection_ethereum-86">
	<path class="st0_ethereum-86" d="M225.4,317.5h-0.2c-2.6-0.7-74-42.2-82.2-46.9c-0.2-0.1-0.4-0.4-0.4-0.6c0-0.3,0.1-0.5,0.4-0.6l31.9-17.1&#10;&#9;&#9;c0.4-0.2,0.8-0.1,1,0.3c0.2,0.4,0.1,0.8-0.3,1l0,0L144.8,270c22.7,13.2,78.4,45.4,80.7,46.1c0.4,0.1,0.6,0.5,0.5,0.9&#10;&#9;&#9;C226,317.3,225.7,317.5,225.4,317.5z"/>
	<path class="st0_ethereum-86" d="M277.9,313.3c-0.4,0-0.7-0.3-0.7-0.7c0-0.3,0.1-0.5,0.3-0.6c3.1-2,111.3-59.1,115.9-61.5&#10;&#9;&#9;c0.4-0.2,0.8,0,0.9,0.4c0.1,0.3,0,0.7-0.3,0.9c-1.1,0.6-112.7,59.5-115.8,61.5C278.2,313.3,278,313.3,277.9,313.3z"/>
	<path class="st0_ethereum-86" d="M186.6,384.1c-0.1,0-0.3,0-0.4-0.1l-92.5-55.4c-0.3-0.2-0.5-0.6-0.2-1c0.2-0.3,0.6-0.5,1-0.2l92.2,55.2&#10;&#9;&#9;l29.5-15.5c0.4-0.2,0.8,0,1,0.3c0.2,0.4,0,0.8-0.3,1l0,0L186.9,384C186.8,384,186.7,384.1,186.6,384.1z"/>
	<path class="st0_ethereum-86" d="M286.7,333.5c-0.4,0-0.7-0.3-0.7-0.7c0-0.3,0.1-0.5,0.4-0.7l60.4-31.8c0.2-0.1,0.5-0.1,0.7,0l58,31.8&#10;&#9;&#9;c0.4,0.2,0.5,0.6,0.3,1c0,0,0,0,0,0c-0.2,0.4-0.6,0.5-1,0.3c0,0,0,0,0,0l-57.6-31.6l-60.1,31.7C287,333.4,286.9,333.5,286.7,333.5z&#10;&#9;&#9;"/>
	<ellipse class="st1_ethereum-86" cx="405.1" cy="332.7" rx="9.9" ry="5.7"/>
	<path class="st0_ethereum-86" d="M405.1,339.1c-2.6,0.1-5.1-0.5-7.4-1.8c-2.1-1.2-3.2-2.9-3.2-4.7s1.1-3.5,3.2-4.7c4.6-2.3,10.1-2.3,14.7,0&#10;&#9;&#9;c2.1,1.2,3.3,2.9,3.3,4.7s-1.2,3.5-3.3,4.7C410.2,338.6,407.6,339.2,405.1,339.1z M405.1,327.7c-2.3,0-4.6,0.5-6.6,1.6&#10;&#9;&#9;c-1.6,0.9-2.5,2.1-2.5,3.4s0.9,2.5,2.5,3.4c4.2,2.1,9.1,2.1,13.2,0c1.6-1,2.5-2.2,2.5-3.4s-0.9-2.5-2.5-3.4&#10;&#9;&#9;C409.7,328.2,407.4,327.7,405.1,327.7L405.1,327.7z"/>
	<ellipse class="st1_ethereum-86" cx="178.5" cy="251.1" rx="9.9" ry="5.7"/>
	<path class="st0_ethereum-86" d="M178.5,257.5c-2.6,0.1-5.1-0.6-7.4-1.8c-2.1-1.2-3.2-2.9-3.2-4.7s1.1-3.4,3.2-4.7c4.6-2.3,10.1-2.3,14.7,0&#10;&#9;&#9;c2.1,1.2,3.2,2.9,3.2,4.7s-1.1,3.4-3.2,4.7C183.6,256.9,181.1,257.5,178.5,257.5z M178.5,246.1c-2.3,0-4.6,0.5-6.6,1.6&#10;&#9;&#9;c-1.6,0.9-2.5,2.1-2.5,3.4s0.9,2.5,2.5,3.4c4.2,2.1,9.1,2.1,13.2,0c1.6-0.9,2.5-2.1,2.5-3.4s-0.9-2.5-2.5-3.4&#10;&#9;&#9;C183.1,246.6,180.8,246,178.5,246.1L178.5,246.1z"/>
	<path class="st0_ethereum-86" d="M343.7,396.8c-0.1,0-0.2,0-0.4-0.1l-54.4-32c-0.3-0.2-0.5-0.7-0.3-1c0,0,0,0,0,0c0.2-0.3,0.6-0.5,1-0.3&#10;&#9;&#9;c0,0,0,0,0,0l54.4,32c0.3,0.2,0.5,0.6,0.3,1C344.3,396.6,344,396.8,343.7,396.8L343.7,396.8z"/>
</g>
<g id="Coins_ethereum-86">
	<path class="st1_ethereum-86" d="M325.8,392.2v9.2c0,4.5,3,8.9,8.9,12.4c11.8,6.8,31,6.8,42.8,0c5.9-3.4,8.9-7.9,8.9-12.4v-9.2H325.8z"/>
	<path class="st2_ethereum-86" d="M356,419.5c-7.9,0-15.8-1.7-21.7-5.2s-9.2-8-9.2-13v-9.1c0-0.4,0.3-0.7,0.7-0.7h0h60.5c0.4,0,0.7,0.3,0.7,0.7&#10;&#9;&#9;v0v9.2c0,4.9-3.3,9.5-9.2,13S363.9,419.5,356,419.5z M326.5,392.9v8.5c0,4.4,3,8.6,8.5,11.8c11.6,6.7,30.5,6.7,42.1,0&#10;&#9;&#9;c5.5-3.2,8.5-7.3,8.5-11.8v-8.5H326.5z"/>
	<ellipse class="st1_ethereum-86" cx="356" cy="390.9" rx="30.3" ry="17.5"/>
	<path class="st2_ethereum-86" d="M356,409.1c-7.9,0-15.8-1.7-21.7-5.2s-9.2-8-9.2-13s3.3-9.5,9.2-13c12-6.9,31.5-6.9,43.5,0&#10;&#9;&#9;c5.9,3.4,9.2,8,9.2,13s-3.3,9.5-9.2,13S363.9,409.1,356,409.1z M356,374.2c-7.6,0-15.2,1.7-21,5c-5.5,3.2-8.5,7.3-8.5,11.7&#10;&#9;&#9;s3,8.6,8.5,11.8c11.6,6.7,30.5,6.7,42.1,0c5.5-3.2,8.5-7.3,8.5-11.8s-3-8.6-8.5-11.7C371.3,375.8,363.6,374.1,356,374.2L356,374.2z&#10;&#9;&#9;"/>
	<ellipse class="st1_ethereum-86" cx="356" cy="390.9" rx="21.4" ry="12.4"/>
	<path class="st0_ethereum-86" d="M356,404c-5.4,0.1-10.7-1.2-15.5-3.7c-4.3-2.5-6.6-5.8-6.6-9.4s2.4-6.9,6.6-9.4c8.5-4.9,22.4-4.9,31,0&#10;&#9;&#9;c4.3,2.5,6.6,5.8,6.6,9.4s-2.4,6.9-6.6,9.4l0,0C366.7,402.8,361.4,404.1,356,404z M356,379.3c-5.1-0.1-10.2,1.1-14.8,3.5&#10;&#9;&#9;c-3.8,2.2-5.9,5.1-5.9,8.1s2.1,5.9,5.9,8.1c8.1,4.7,21.4,4.7,29.5,0l0,0c3.8-2.2,5.9-5.1,5.9-8.1s-2.1-5.9-5.9-8.1&#10;&#9;&#9;C366.2,380.4,361.1,379.2,356,379.3L356,379.3z"/>
</g>
<g id="servers_ethereum-86">
	<polygon class="st1_ethereum-86" points="393.8,284.3 339,252.7 339,238 393.8,269.6 &#9;"/>
	<path class="st2_ethereum-86" d="M393.8,285c-0.1,0-0.2,0-0.4-0.1l-54.8-31.6c-0.2-0.1-0.3-0.4-0.4-0.6V238c0-0.4,0.3-0.7,0.7-0.7&#10;&#9;&#9;c0.1,0,0.2,0,0.4,0.1l54.8,31.6c0.2,0.1,0.3,0.4,0.4,0.6v14.7C394.5,284.7,394.2,285,393.8,285C393.8,285,393.8,285,393.8,285z&#10;&#9;&#9; M339.7,252.3l53.4,30.8V270l-53.4-30.8V252.3z"/>
	<polygon class="st1_ethereum-86" points="448.5,252.8 393.8,284.3 393.8,269.6 448.5,238.1 &#9;"/>
	<path class="st2_ethereum-86" d="M393.8,285c-0.1,0-0.2,0-0.4-0.1c-0.2-0.1-0.3-0.4-0.3-0.6v-14.7c0-0.2,0.1-0.5,0.4-0.6l54.8-31.5&#10;&#9;&#9;c0.2-0.1,0.5-0.1,0.7,0c0.2,0.1,0.3,0.4,0.4,0.6v14.7c0,0.3-0.1,0.5-0.4,0.6l-54.8,31.5C394,285,393.9,285,393.8,285z M394.5,270&#10;&#9;&#9;v13.1l53.4-30.7v-13.1L394.5,270z M448.5,252.8L448.5,252.8z"/>
	<polygon class="st1_ethereum-86" points="393.8,269.6 339,238 393.8,206.4 448.5,238 &#9;"/>
	<path class="st2_ethereum-86" d="M393.8,270.3c-0.1,0-0.2,0-0.4-0.1l-54.8-31.6c-0.2-0.1-0.3-0.4-0.4-0.6c0-0.2,0.1-0.5,0.4-0.6l54.8-31.6&#10;&#9;&#9;c0.2-0.1,0.5-0.1,0.7,0l54.8,31.6c0.2,0.1,0.3,0.4,0.4,0.6c0,0.2-0.1,0.5-0.4,0.6l-54.8,31.6C394,270.3,393.9,270.3,393.8,270.3z&#10;&#9;&#9; M340.4,238l53.4,30.8l53.4-30.8l-53.4-30.8L340.4,238z"/>
	<path class="st0_ethereum-86" d="M393.8,262.1c-0.1,0-0.3,0-0.4-0.1L353,238.6c-0.2-0.1-0.4-0.4-0.4-0.6c0-0.3,0.1-0.5,0.4-0.6l40.5-23.4&#10;&#9;&#9;c0.2-0.1,0.5-0.1,0.7,0l40.5,23.4c0.2,0.1,0.4,0.4,0.4,0.6c0,0.3-0.1,0.5-0.4,0.6L394.2,262C394,262.1,393.9,262.1,393.8,262.1z&#10;&#9;&#9; M354.8,238l39,22.5l39-22.5l-39-22.5L354.8,238z"/>
	<polygon class="st1_ethereum-86" points="98.8,357.5 51.5,330.1 51.5,317.4 98.8,344.8 &#9;"/>
	<path class="st2_ethereum-86" d="M98.8,358.2c-0.1,0-0.2,0-0.3-0.1l-47.4-27.4c-0.2-0.1-0.3-0.4-0.3-0.6v-12.7c0-0.4,0.3-0.7,0.7-0.7&#10;&#9;&#9;c0.1,0,0.2,0,0.3,0.1l47.4,27.4c0.2,0.1,0.4,0.4,0.3,0.6v12.7c0,0.3-0.1,0.5-0.3,0.6C99.1,358.2,99,358.2,98.8,358.2z M52.1,329.7&#10;&#9;&#9;l46,26.5v-11.1l-46-26.5L52.1,329.7z"/>
	<polygon class="st1_ethereum-86" points="146.2,330.2 98.8,357.5 98.8,344.8 146.2,317.5 &#9;"/>
	<path class="st2_ethereum-86" d="M98.8,358.2c-0.1,0-0.2,0-0.3-0.1c-0.2-0.1-0.3-0.4-0.3-0.6v-12.7c0-0.2,0.1-0.5,0.3-0.6l47.4-27.3&#10;&#9;&#9;c0.3-0.2,0.8,0,0.9,0.3c0,0.1,0.1,0.2,0.1,0.3v12.7c0,0.2-0.1,0.5-0.4,0.6l-47.3,27.3C99.1,358.1,99,358.2,98.8,358.2z M99.5,345.2&#10;&#9;&#9;v11.1l46-26.5v-11.1L99.5,345.2z M146.2,330.2L146.2,330.2z"/>
	<polygon class="st2_ethereum-86" points="98.8,344.8 51.5,317.4 98.8,290.1 146.2,317.4 &#9;"/>
	<path class="st2_ethereum-86" d="M98.8,345.5c-0.1,0-0.2,0-0.3-0.1L51.1,318c-0.2-0.1-0.3-0.4-0.3-0.6c0-0.2,0.1-0.5,0.3-0.6l47.4-27.4&#10;&#9;&#9;c0.2-0.1,0.5-0.1,0.7,0l47.4,27.4c0.2,0.1,0.3,0.4,0.4,0.6c0,0.2-0.1,0.5-0.4,0.6l-47.4,27.4C99.1,345.5,99,345.5,98.8,345.5z&#10;&#9;&#9; M52.8,317.4l46,26.5l46-26.5l-46-26.6L52.8,317.4z"/>
	<polygon class="st0_ethereum-86" points="98.8,337.6 63.8,317.4 98.8,297.2 133.9,317.4 &#9;"/>
	<path class="st1_ethereum-86" d="M98.8,338.4c-0.1,0-0.2,0-0.4-0.1l-35-20.2c-0.2-0.1-0.4-0.4-0.4-0.6c0-0.3,0.1-0.5,0.4-0.6l35-20.2&#10;&#9;&#9;c0.2-0.1,0.5-0.1,0.7,0l35,20.2c0.2,0.1,0.4,0.4,0.4,0.6c0,0.3-0.1,0.5-0.4,0.6l-35,20.2C99.1,338.3,99,338.4,98.8,338.4z&#10;&#9;&#9; M65.3,317.4l33.6,19.4l33.6-19.4L98.8,298L65.3,317.4z"/>
	<polygon class="st1_ethereum-86" points="98.8,338 51.5,310.6 51.5,297.9 98.8,325.3 &#9;"/>
	<path class="st2_ethereum-86" d="M98.8,338.7c-0.1,0-0.2,0-0.3-0.1l-47.4-27.3c-0.2-0.1-0.3-0.4-0.3-0.6v-12.7c0-0.2,0.1-0.5,0.3-0.6&#10;&#9;&#9;c0.2-0.1,0.5-0.1,0.7,0l47.4,27.4c0.2,0.1,0.3,0.4,0.3,0.6V338c0,0.2-0.1,0.5-0.3,0.6C99.1,338.7,99,338.7,98.8,338.7z M52.1,310.2&#10;&#9;&#9;l46,26.5v-11.1l-46-26.6L52.1,310.2z"/>
	<polygon class="st1_ethereum-86" points="146.2,310.7 98.8,338 98.8,325.2 146.2,298 &#9;"/>
	<path class="st2_ethereum-86" d="M98.8,338.7c-0.1,0-0.2,0-0.3-0.1c-0.2-0.1-0.4-0.4-0.3-0.6v-12.7c0-0.2,0.1-0.5,0.3-0.6l47.4-27.3&#10;&#9;&#9;c0.2-0.1,0.5-0.1,0.7,0c0.2,0.1,0.3,0.4,0.4,0.6v12.7c0,0.2-0.1,0.5-0.4,0.6l-47.4,27.3C99.1,338.6,99,338.7,98.8,338.7z&#10;&#9;&#9; M99.5,325.7v11.1l46-26.5v-11.1L99.5,325.7z M146.2,310.7L146.2,310.7z"/>
	<polygon class="st2_ethereum-86" points="98.8,325.3 51.5,297.9 98.8,270.6 146.2,297.9 &#9;"/>
	<path class="st2_ethereum-86" d="M98.8,326c-0.1,0-0.2,0-0.3-0.1l-47.4-27.4c-0.2-0.1-0.3-0.4-0.3-0.6c0-0.2,0.1-0.5,0.3-0.6L98.5,270&#10;&#9;&#9;c0.2-0.1,0.5-0.1,0.7,0l47.4,27.4c0.2,0.1,0.3,0.4,0.4,0.6c0,0.2-0.1,0.5-0.4,0.6l-47.4,27.3C99.1,326,99,326,98.8,326z&#10;&#9;&#9; M52.8,297.9l46,26.6l46-26.6l-46-26.5L52.8,297.9z"/>
	<polygon class="st0_ethereum-86" points="98.8,318.1 63.8,297.9 98.8,277.7 133.9,297.9 &#9;"/>
	<path class="st1_ethereum-86" d="M98.8,318.9c-0.1,0-0.2,0-0.4-0.1l-35-20.2c-0.2-0.1-0.4-0.4-0.4-0.6c0-0.3,0.1-0.5,0.4-0.6l35-20.2&#10;&#9;&#9;c0.2-0.1,0.5-0.1,0.7,0l35,20.2c0.2,0.1,0.4,0.4,0.4,0.6c0,0.3-0.1,0.5-0.4,0.6l-35,20.2C99.1,318.8,99,318.9,98.8,318.9z&#10;&#9;&#9; M65.3,297.9l33.6,19.4l33.6-19.4l-33.6-19.4L65.3,297.9z"/>
	<polygon class="st1_ethereum-86" points="98.8,318.5 51.5,291.2 51.5,278.4 98.8,305.8 &#9;"/>
	<path class="st2_ethereum-86" d="M98.8,319.2c-0.1,0-0.2,0-0.3-0.1l-47.4-27.4c-0.2-0.1-0.3-0.4-0.3-0.6v-12.7c0-0.4,0.3-0.7,0.7-0.7&#10;&#9;&#9;c0.1,0,0.2,0,0.3,0.1l47.4,27.4c0.2,0.1,0.3,0.4,0.3,0.6v12.7c0,0.3-0.1,0.5-0.3,0.6C99.1,319.2,99,319.2,98.8,319.2z M52.1,290.8&#10;&#9;&#9;l46,26.5v-11.1l-46-26.5L52.1,290.8z"/>
	<polygon class="st1_ethereum-86" points="146.2,291.2 98.8,318.5 98.8,305.8 146.2,278.5 &#9;"/>
	<path class="st2_ethereum-86" d="M98.8,319.2c-0.1,0-0.2,0-0.3-0.1c-0.2-0.1-0.3-0.4-0.3-0.6v-12.7c0-0.3,0.1-0.5,0.3-0.6l47.4-27.3&#10;&#9;&#9;c0.3-0.2,0.8,0,0.9,0.3c0,0.1,0.1,0.2,0.1,0.3v12.7c0,0.2-0.1,0.5-0.4,0.6l-47.3,27.3C99.1,319.1,99,319.2,98.8,319.2z M99.5,306.2&#10;&#9;&#9;v11.1l46-26.5v-11.1L99.5,306.2z M146.2,291.2L146.2,291.2z"/>
	<polygon class="st1_ethereum-86" points="98.8,305.8 51.5,278.4 98.8,251.1 146.2,278.4 &#9;"/>
	<path class="st2_ethereum-86" d="M98.8,306.5c-0.1,0-0.2,0-0.3-0.1L51.1,279c-0.3-0.2-0.4-0.6-0.2-1c0.1-0.1,0.1-0.2,0.2-0.2l47.4-27.4&#10;&#9;&#9;c0.2-0.1,0.5-0.1,0.7,0l47.4,27.4c0.3,0.2,0.4,0.6,0.2,1c-0.1,0.1-0.1,0.2-0.2,0.2l-47.4,27.4C99.1,306.5,99,306.5,98.8,306.5z&#10;&#9;&#9; M52.8,278.4l46,26.6l46-26.6l-46-26.6L52.8,278.4z"/>
	<path class="st0_ethereum-86" d="M98.8,299.4c-0.1,0-0.3,0-0.4-0.1l-35-20.2c-0.2-0.1-0.4-0.4-0.4-0.6c0-0.3,0.1-0.5,0.4-0.6l35-20.2&#10;&#9;&#9;c0.2-0.1,0.5-0.1,0.7,0l35,20.2c0.2,0.1,0.4,0.4,0.4,0.6c0,0.3-0.1,0.5-0.4,0.6l-35,20.2C99.1,299.3,99,299.4,98.8,299.4z&#10;&#9;&#9; M65.3,278.4l33.6,19.4l33.6-19.4l-33.6-19.4L65.3,278.4z"/>
	<ellipse transform="matrix(0.866 -0.5 0.5 0.866 -137.6944 72.6834)" class="st0_ethereum-86" cx="66.8" cy="293.3" rx="1.1" ry="1.8"/>
	<ellipse transform="matrix(0.866 -0.5 0.5 0.866 -136.8808 69.6517)" class="st0_ethereum-86" cx="61.5" cy="290.2" rx="1" ry="1.8"/>
	<ellipse transform="matrix(0.866 -0.5 0.5 0.866 -136.0698 66.6201)" class="st0_ethereum-86" cx="56.3" cy="287.2" rx="1" ry="1.8"/>
	<polygon class="st1_ethereum-86" points="249.3,396.2 164.6,347.3 164.6,324.6 249.3,373.5 &#9;"/>
	<path class="st2_ethereum-86" d="M249.3,396.9c-0.1,0-0.2,0-0.4-0.1l-84.7-48.9c-0.2-0.1-0.3-0.4-0.4-0.6v-22.7c0-0.2,0.1-0.5,0.4-0.6&#10;&#9;&#9;c0.2-0.1,0.5-0.1,0.7,0l84.7,48.9c0.2,0.1,0.3,0.4,0.4,0.6v22.7c0,0.3-0.1,0.5-0.4,0.6C249.5,396.8,249.4,396.9,249.3,396.9z&#10;&#9;&#9; M165.3,346.9l83.3,48.1v-21.1l-83.3-48L165.3,346.9z"/>
	<polygon class="st1_ethereum-86" points="334,347.4 249.3,396.1 249.3,373.4 334,324.6 &#9;"/>
	<path class="st2_ethereum-86" d="M249.3,396.8c-0.4,0-0.7-0.3-0.7-0.7c0,0,0,0,0,0v-22.7c0-0.3,0.1-0.5,0.4-0.6l84.7-48.8&#10;&#9;&#9;c0.2-0.1,0.5-0.1,0.7,0c0.2,0.1,0.3,0.4,0.4,0.6v22.7c0,0.3-0.1,0.5-0.4,0.6l-84.7,48.7C249.5,396.7,249.4,396.8,249.3,396.8z&#10;&#9;&#9; M250,373.8v21.1l83.3-47.9v-21.1L250,373.8z M334,347.4L334,347.4z"/>
	<polygon class="st1_ethereum-86" points="249.3,373.5 164.6,324.6 249.3,275.7 334,324.6 &#9;"/>
	<path class="st2_ethereum-86" d="M249.3,374.2c-0.1,0-0.2,0-0.4-0.1l-84.7-48.9c-0.2-0.1-0.3-0.4-0.4-0.6c0-0.2,0.1-0.5,0.4-0.6l84.7-48.9&#10;&#9;&#9;c0.2-0.1,0.5-0.1,0.7,0l84.6,48.9c0.2,0.1,0.4,0.4,0.4,0.6c0,0.3-0.1,0.5-0.4,0.6l-84.7,48.9C249.5,374.1,249.4,374.2,249.3,374.2z&#10;&#9;&#9; M166,324.6l83.3,48.1l83.3-48.1l-83.2-48.1L166,324.6z"/>
	<ellipse class="st1_ethereum-86" cx="249.3" cy="324.6" rx="50.4" ry="29.1"/>
	<path class="st0_ethereum-86" d="M249.3,354.4c-13,0-26.1-2.9-36-8.6c-9.8-5.6-15.1-13.2-15.1-21.2s5.4-15.6,15.1-21.2&#10;&#9;&#9;c19.9-11.5,52.2-11.5,72,0c9.8,5.6,15.1,13.2,15.1,21.2s-5.4,15.6-15.1,21.2C275.4,351.5,262.3,354.4,249.3,354.4z M249.3,296.2&#10;&#9;&#9;c-12.8,0-25.6,2.8-35.3,8.4c-9.3,5.4-14.4,12.5-14.4,20s5.1,14.6,14.4,20c19.4,11.2,51.1,11.2,70.6,0c9.3-5.4,14.4-12.4,14.4-20&#10;&#9;&#9;s-5.1-14.6-14.4-20C274.9,299,262.1,296.2,249.3,296.2L249.3,296.2z"/>
	<polygon class="st1_ethereum-86" points="303.6,358.2 282,370.7 282,362.5 303.6,350.1 &#9;"/>
	<path class="st0_ethereum-86" d="M282,371.4c-0.1,0-0.3,0-0.4-0.1c-0.2-0.1-0.4-0.4-0.4-0.6v-8.1c0-0.3,0.1-0.5,0.4-0.6l21.6-12.5&#10;&#9;&#9;c0.2-0.1,0.5-0.1,0.7,0c0.2,0.1,0.4,0.4,0.4,0.6v8.1c0,0.3-0.1,0.5-0.4,0.6l-21.6,12.5C282.3,371.4,282.2,371.4,282,371.4z&#10;&#9;&#9; M282.8,362.9v6.5l20.1-11.6v-6.5L282.8,362.9z M303.6,358.2L303.6,358.2z"/>
	<ellipse transform="matrix(0.866 -0.5 0.5 0.866 -150.5525 143.9237)" class="st0_ethereum-86" cx="193.3" cy="352.9" rx="1.9" ry="3.4"/>
	<ellipse transform="matrix(0.866 -0.5 0.5 0.866 -149.0536 138.3356)" class="st0_ethereum-86" cx="183.6" cy="347.3" rx="1.9" ry="3.4"/>
	<ellipse transform="matrix(0.866 -0.5 0.5 0.866 -147.5547 132.7475)" class="st0_ethereum-86" cx="173.9" cy="341.7" rx="1.9" ry="3.4"/>
	<ellipse transform="matrix(0.866 -0.5 0.5 0.866 -80.0417 214.0534)" class="st0_ethereum-86" cx="359.4" cy="256.4" rx="1.2" ry="2.1"/>
	<ellipse transform="matrix(0.866 -0.5 0.5 0.866 -79.0978 210.5539)" class="st0_ethereum-86" cx="353.4" cy="252.9" rx="1.2" ry="2.1"/>
	<ellipse transform="matrix(0.866 -0.5 0.5 0.866 -78.1626 207.0522)" class="st0_ethereum-86" cx="347.3" cy="249.4" rx="1.2" ry="2.1"/>
</g>
<g id="Ethereum_ethereum-86">
	<polygon class="st2_ethereum-86" points="174.9,199.8 249.7,162.4 325.1,202.2 250,251.1 &#9;"/>
	<path class="st2_ethereum-86" d="M250,251.8c-0.1,0-0.3,0-0.4-0.1l-75.1-51.2c-0.2-0.1-0.3-0.4-0.3-0.6c0-0.2,0.2-0.5,0.4-0.6l74.8-37.4&#10;&#9;&#9;c0.2-0.1,0.4-0.1,0.6,0l75.4,39.8c0.2,0.1,0.4,0.3,0.4,0.6c0,0.2-0.1,0.5-0.3,0.6l-75.1,48.9C250.3,251.7,250.1,251.8,250,251.8z&#10;&#9;&#9; M176.3,199.9l73.7,50.3l73.7-48l-74-39.1L176.3,199.9z"/>
	<polygon class="st3_ethereum-86 targetColor" points="249.7,81.2 249.7,231.8 323.1,182.1 &#9;" style="fill: rgb(104, 225, 253);"/>
	<path class="st2_ethereum-86" d="M249.7,232.5c-0.1,0-0.2,0-0.3-0.1c-0.2-0.1-0.4-0.4-0.4-0.6V81.2c0-0.3,0.2-0.6,0.5-0.7&#10;&#9;&#9;c0.3-0.1,0.6,0,0.8,0.3l73.5,100.9c0.1,0.2,0.2,0.3,0.1,0.5c0,0.2-0.1,0.4-0.3,0.5l-73.4,49.7C249.9,232.4,249.8,232.5,249.7,232.5&#10;&#9;&#9;z M250.4,83.3v147.1l71.8-48.5L250.4,83.3z"/>
	<polygon class="st3_ethereum-86 targetColor" points="249.7,81.2 174.9,182.1 249.7,231.8 &#9;" style="fill: rgb(104, 225, 253);"/>
	<path class="st2_ethereum-86" d="M249.7,232.5c-0.1,0-0.3,0-0.4-0.1l-74.8-49.7c-0.2-0.1-0.3-0.3-0.3-0.5c0-0.2,0-0.4,0.1-0.5l74.8-100.9&#10;&#9;&#9;c0.2-0.2,0.5-0.3,0.8-0.2c0.3,0.1,0.5,0.4,0.5,0.7v150.6c0,0.3-0.1,0.5-0.4,0.6C249.9,232.4,249.8,232.5,249.7,232.5z M175.9,181.9&#10;&#9;&#9;l73.1,48.5V83.3L175.9,181.9z"/>
	<polygon class="st3_ethereum-86 targetColor" points="174.9,199.8 249.7,304.3 249.7,251.1 &#9;" style="fill: rgb(104, 225, 253);"/>
	<path class="st2_ethereum-86" d="M249.7,305c-0.2,0-0.4-0.1-0.6-0.3l-74.8-104.5c-0.3-0.3-0.3-0.7,0-1s0.7-0.3,1,0l0,0l74.8,51.2&#10;&#9;&#9;c0.2,0.1,0.3,0.3,0.3,0.6v53.2c0,0.3-0.2,0.6-0.5,0.7C249.8,305,249.8,305,249.7,305z M177.8,202.6l71.2,99.5v-50.7L177.8,202.6z"/>
	<polygon class="st3_ethereum-86 targetColor" points="249.7,304.3 325.1,202.2 249.7,251.1 &#9;" style="fill: rgb(104, 225, 253);"/>
	<path class="st2_ethereum-86" d="M249.7,305c-0.1,0-0.1,0-0.2,0c-0.3-0.1-0.5-0.4-0.5-0.7v-53.3c0-0.2,0.1-0.5,0.3-0.6l75.4-48.9&#10;&#9;&#9;c0.3-0.2,0.7-0.1,0.9,0.1c0.2,0.2,0.3,0.6,0.1,0.9l-75.4,102.1C250.1,304.9,249.9,305,249.7,305z M250.4,251.5v50.7l71.9-97.3&#10;&#9;&#9;L250.4,251.5z"/>
	<polygon class="st2_ethereum-86" points="71.2,245.5 98.7,231.7 126.5,246.4 98.8,264.4 &#9;"/>
	<path class="st2_ethereum-86" d="M98.8,265.1c-0.1,0-0.3,0-0.4-0.1l-27.7-18.9c-0.2-0.1-0.3-0.4-0.3-0.6c0-0.2,0.2-0.5,0.4-0.6l27.6-13.8&#10;&#9;&#9;c0.2-0.1,0.4-0.1,0.6,0l27.8,14.7c0.2,0.1,0.4,0.3,0.4,0.6c0,0.2-0.1,0.5-0.3,0.6l-27.7,18C99.1,265.1,99,265.1,98.8,265.1z&#10;&#9;&#9; M72.5,245.6l26.3,18l26.3-17.1l-26.4-14L72.5,245.6z"/>
	<polygon class="st3_ethereum-86 targetColor" points="98.7,201.8 98.7,257.3 125.8,239 &#9;" style="fill: rgb(104, 225, 253);"/>
	<path class="st2_ethereum-86" d="M98.7,258c-0.1,0-0.2,0-0.3-0.1c-0.2-0.1-0.4-0.4-0.4-0.6v-55.5c0-0.3,0.2-0.6,0.5-0.7c0.3-0.1,0.6,0,0.8,0.3&#10;&#9;&#9;l27.1,37.2c0.1,0.2,0.2,0.4,0.1,0.5c0,0.2-0.1,0.4-0.3,0.5l-27.1,18.3C99,257.9,98.9,258,98.7,258z M99.4,203.9V256l25.4-17.2&#10;&#9;&#9;L99.4,203.9z"/>
	<polygon class="st3_ethereum-86 targetColor" points="98.7,201.8 71.2,239 98.7,257.3 &#9;" style="fill: rgb(104, 225, 253);"/>
	<path class="st2_ethereum-86" d="M98.7,258c-0.1,0-0.3,0-0.4-0.1l-27.6-18.3c-0.3-0.2-0.4-0.6-0.2-1c0,0,0,0,0,0l27.6-37.2&#10;&#9;&#9;c0.2-0.3,0.7-0.4,1-0.1c0.2,0.1,0.3,0.3,0.3,0.6v55.5c0,0.3-0.1,0.5-0.4,0.6C99,258,98.8,258,98.7,258z M72.2,238.8L98,256v-52.1&#10;&#9;&#9;L72.2,238.8z"/>
	<polygon class="st3_ethereum-86 targetColor" points="71.2,245.5 98.7,284 98.7,264.4 &#9;" style="fill: rgb(104, 225, 253);"/>
	<path class="st2_ethereum-86" d="M98.7,284.7c-0.2,0-0.4-0.1-0.6-0.3l-27.6-38.5c-0.2-0.3-0.2-0.6,0.1-0.9c0.2-0.2,0.6-0.3,0.9-0.1l27.6,18.9&#10;&#9;&#9;c0.2,0.1,0.3,0.3,0.3,0.6V284c0,0.3-0.2,0.6-0.5,0.7L98.7,284.7z M74.1,248.3l24,33.5v-17.1L74.1,248.3z"/>
	<polygon class="st3_ethereum-86 targetColor" points="98.7,284 126.5,246.4 98.7,264.4 &#9;" style="fill: rgb(104, 225, 253);"/>
	<path class="st2_ethereum-86" d="M98.7,284.7c-0.1,0-0.1,0-0.2,0c-0.3-0.1-0.5-0.4-0.5-0.7v-19.6c0-0.2,0.1-0.5,0.3-0.6l27.8-18&#10;&#9;&#9;c0.3-0.2,0.8-0.1,1,0.2c0.1,0.2,0.1,0.5,0,0.8l-27.8,37.6C99.2,284.6,99,284.7,98.7,284.7z M99.4,264.8v17.1l24.3-32.8L99.4,264.8z&#10;&#9;&#9;"/>
	<polygon class="st2_ethereum-86" points="362.2,186.8 395.1,170.3 428.2,187.8 395.2,209.3 &#9;"/>
	<path class="st2_ethereum-86" d="M395.2,210c-0.1,0-0.3,0-0.4-0.1l-33-22.5c-0.3-0.2-0.4-0.7-0.2-1c0.1-0.1,0.2-0.2,0.3-0.2l32.8-16.4&#10;&#9;&#9;c0.2-0.1,0.4-0.1,0.6,0l33.1,17.5c0.2,0.1,0.4,0.3,0.4,0.6c0,0.2-0.1,0.5-0.3,0.6l-33,21.5C395.4,210,395.3,210,395.2,210z&#10;&#9;&#9; M363.6,186.9l31.6,21.6l31.6-20.6l-31.7-16.8L363.6,186.9z"/>
	<polygon class="st3_ethereum-86 targetColor" points="395.1,134.7 395.1,200.8 427.3,179 &#9;" style="fill: rgb(104, 225, 253);"/>
	<path class="st2_ethereum-86" d="M395.1,201.5c-0.4,0-0.7-0.3-0.7-0.7v-66.1c0-0.3,0.2-0.6,0.5-0.7c0.3-0.1,0.6,0,0.8,0.3l32.2,44.3&#10;&#9;&#9;c0.1,0.2,0.2,0.3,0.1,0.5c0,0.2-0.1,0.4-0.3,0.5l-32.2,21.8C395.3,201.5,395.2,201.5,395.1,201.5z M395.8,136.8v62.6l30.6-20.7&#10;&#9;&#9;L395.8,136.8z"/>
	<polygon class="st3_ethereum-86 targetColor" points="395.1,134.7 362.2,179 395.1,200.8 &#9;" style="fill: rgb(104, 225, 253);"/>
	<path class="st2_ethereum-86" d="M395.1,201.5c-0.1,0-0.3,0-0.4-0.1l-32.8-21.8c-0.2-0.1-0.3-0.3-0.3-0.5c0-0.2,0-0.4,0.1-0.5l32.8-44.3&#10;&#9;&#9;c0.2-0.3,0.7-0.4,1-0.1c0.2,0.1,0.3,0.3,0.3,0.6v66.1C395.8,201.2,395.4,201.5,395.1,201.5L395.1,201.5z M363.2,178.8l31.1,20.7&#10;&#9;&#9;v-62.7L363.2,178.8z"/>
	<polygon class="st3_ethereum-86 targetColor" points="362.2,186.8 395.1,232.7 395.1,209.3 &#9;" style="fill: rgb(104, 225, 253);"/>
	<path class="st2_ethereum-86" d="M395.1,233.4c-0.2,0-0.4-0.1-0.6-0.3l-32.8-45.9c-0.3-0.3-0.3-0.7,0-1s0.7-0.3,1,0l32.8,22.5&#10;&#9;&#9;c0.2,0.1,0.3,0.3,0.3,0.6v23.4c0,0.3-0.2,0.6-0.5,0.7C395.2,233.3,395.1,233.4,395.1,233.4z M365.1,189.6l29.2,40.9v-20.8&#10;&#9;&#9;L365.1,189.6z"/>
	<polygon class="st3_ethereum-86 targetColor" points="395.1,232.7 428.2,187.8 395.1,209.3 &#9;" style="fill: rgb(104, 225, 253);"/>
	<path class="st2_ethereum-86" d="M395.1,233.4c-0.1,0-0.1,0-0.2,0c-0.3-0.1-0.5-0.4-0.5-0.7v-23.4c0-0.2,0.1-0.5,0.3-0.6l33.1-21.5&#10;&#9;&#9;c0.3-0.2,0.7-0.1,0.9,0.1c0.2,0.2,0.3,0.6,0.1,0.9l-33.1,44.8C395.5,233.2,395.3,233.4,395.1,233.4z M395.8,209.7v20.9l29.6-40&#10;&#9;&#9;L395.8,209.7z"/>
</g>
</svg>